<?xml version="1.0" standalone="no"?>
<!DOCTYPE svg PUBLIC "-//W3C//DTD SVG 20010904//EN"
 "http://www.w3.org/TR/2001/REC-SVG-20010904/DTD/svg10.dtd">
<svg version="1.0" xmlns="http://www.w3.org/2000/svg"
 width="224.000000pt" height="224.000000pt" viewBox="0 0 224.000000 224.000000"
 preserveAspectRatio="xMidYMid meet">

<g transform="translate(0.000000,224.000000) scale(0.100000,-0.100000)"
fill="#000000" stroke="none">
<path d="M1562 1969 c-13 -5 -20 -14 -17 -20 4 -6 0 -9 -10 -7 -11 2 -25 -8
-36 -27 -22 -38 -25 -69 -4 -41 8 11 15 14 15 8 0 -7 11 -12 25 -12 14 0 28
-7 31 -15 4 -8 16 -15 29 -15 13 0 25 -7 29 -15 3 -8 17 -20 31 -27 17 -8 25
-18 23 -32 -2 -16 2 -20 17 -18 21 2 65 -51 65 -78 0 -11 3 -11 12 -2 10 10
16 4 30 -25 10 -20 18 -46 18 -57 0 -15 3 -17 9 -8 6 11 13 7 30 -15 11 -15
25 -33 31 -40 6 -7 16 -36 24 -65 10 -39 15 -48 19 -33 3 11 4 1 1 -22 -4 -30
-2 -43 6 -43 9 0 11 -22 7 -82 -6 -78 -5 -79 4 -28 6 30 8 84 4 120 -4 36 -8
85 -11 108 -2 24 -9 52 -14 62 -6 10 -10 28 -10 39 0 11 -7 26 -15 34 -8 8
-11 18 -8 21 4 4 -3 13 -15 22 -22 15 -32 41 -11 28 13 -7 -15 48 -33 68 -7 7
-19 25 -27 41 -8 15 -21 27 -28 27 -8 0 -12 4 -9 8 7 12 -74 103 -85 96 -5 -3
-8 0 -7 6 3 13 -59 50 -82 49 -8 0 -25 -4 -38 -10z m31 -16 c-7 -2 -19 -2 -25
0 -7 3 -2 5 12 5 14 0 19 -2 13 -5z m54 -29 c-3 -3 -12 -4 -19 -1 -8 3 -5 6 6
6 11 1 17 -2 13 -5z m126 -134 c3 -11 -2 -25 -11 -32 -13 -11 -14 -11 -7 2 5
8 8 23 7 33 -4 23 4 22 11 -3z m154 -322 c-3 -7 -5 -2 -5 12 0 14 2 19 5 13 2
-7 2 -19 0 -25z"/>
<path d="M758 1803 c7 -3 16 -2 19 1 4 3 -2 6 -13 5 -11 0 -14 -3 -6 -6z"/>
<path d="M670 1770 c-13 -8 -12 -10 3 -10 9 0 17 5 17 10 0 12 -1 12 -20 0z"/>
<path d="M708 1773 c7 -3 16 -2 19 1 4 3 -2 6 -13 5 -11 0 -14 -3 -6 -6z"/>
<path d="M1610 1756 c0 -2 7 -7 16 -10 8 -3 12 -2 9 4 -6 10 -25 14 -25 6z"/>
<path d="M569 1708 c-56 -40 -175 -160 -202 -205 -4 -6 -3 -23 3 -38 7 -17 7
-24 0 -20 -6 3 -10 13 -10 21 0 8 -5 12 -11 9 -6 -4 -8 -14 -5 -22 3 -8 2 -11
-4 -8 -13 8 -72 -118 -64 -138 3 -10 1 -17 -5 -17 -6 0 -11 -9 -11 -19 0 -11
-5 -23 -10 -26 -6 -4 -10 -14 -9 -23 2 -10 0 -27 -4 -38 -5 -13 -1 -39 9 -64
14 -34 26 -46 61 -61 49 -21 78 -25 68 -9 -3 6 5 10 19 10 14 0 28 5 31 10 3
6 1 10 -4 10 -7 0 -10 27 -8 70 1 39 -1 70 -5 70 -4 0 -6 34 -5 75 2 63 4 73
14 58 16 -20 17 -9 3 18 -8 15 -7 23 5 35 8 8 15 24 15 34 0 11 5 31 12 45 10
22 9 28 -3 36 -10 8 -8 9 9 4 16 -5 22 -2 22 9 0 8 11 26 25 40 14 14 25 32
25 41 0 18 16 20 23 3 3 -7 6 2 6 19 1 25 7 36 31 48 18 9 27 21 24 29 -3 8 2
16 13 19 13 3 14 5 2 6 -8 0 -35 -13 -60 -31z m21 -12 c0 -2 -7 -7 -16 -10 -8
-3 -12 -2 -9 4 6 10 25 14 25 6z m-40 -35 c0 -5 -7 -11 -15 -15 -15 -5 -20 5
-8 17 9 10 23 9 23 -2z m-85 -81 c3 -5 1 -10 -4 -10 -6 0 -11 5 -11 10 0 6 2
10 4 10 3 0 8 -4 11 -10z m-68 -102 c-3 -7 -5 -2 -5 12 0 14 2 19 5 13 2 -7 2
-19 0 -25z m-87 -122 c0 -3 -4 -8 -10 -11 -5 -3 -10 -1 -10 4 0 6 5 11 10 11
6 0 10 -2 10 -4z m-10 -96 c0 -11 -2 -20 -4 -20 -2 0 -6 9 -9 20 -3 11 -1 20
4 20 5 0 9 -9 9 -20z m-16 -156 c3 -8 2 -12 -4 -9 -6 3 -10 10 -10 16 0 14 7
11 14 -7z m101 6 c-3 -5 -14 -10 -23 -10 -15 0 -15 2 -2 10 20 13 33 13 25 0z
m20 -38 c-8 -8 -25 10 -19 20 4 6 9 5 15 -3 4 -7 6 -15 4 -17z m-65 14 c0 -11
-19 -15 -25 -6 -3 5 1 10 9 10 9 0 16 -2 16 -4z"/>
<path d="M1702 1718 c2 -6 10 -14 16 -16 7 -2 10 2 6 12 -7 18 -28 22 -22 4z"/>
<path d="M1736 1675 c4 -8 8 -15 10 -15 2 0 4 7 4 15 0 8 -4 15 -10 15 -5 0
-7 -7 -4 -15z"/>
<path d="M1831 1544 c0 -11 3 -14 6 -6 3 7 2 16 -1 19 -3 4 -6 -2 -5 -13z"/>
<path d="M483 1504 c-3 -8 -2 -19 3 -24 5 -5 9 1 9 16 0 28 -3 30 -12 8z"/>
<path d="M440 1411 c0 -6 4 -13 10 -16 6 -3 7 1 4 9 -7 18 -14 21 -14 7z"/>
<path d="M410 1263 c0 -4 5 -15 10 -23 8 -13 10 -13 10 2 0 9 -4 20 -10 23 -5
3 -10 3 -10 -2z"/>
<path d="M670 616 c0 -2 7 -9 15 -16 9 -7 15 -8 15 -2 0 5 -7 12 -15 16 -8 3
-15 4 -15 2z"/>
<path d="M770 540 c0 -5 5 -10 11 -10 5 0 7 5 4 10 -3 6 -8 10 -11 10 -2 0 -4
-4 -4 -10z"/>
<path d="M1597 526 c-3 -8 -1 -16 5 -18 16 -6 0 -28 -20 -28 -15 0 -15 2 -2
10 12 8 12 10 -5 10 -29 -1 -55 -24 -56 -51 0 -13 -3 -18 -6 -11 -6 16 -30 15
-36 -2 -8 -20 -70 -36 -139 -36 -45 0 -58 -3 -58 -15 0 -12 -18 -15 -101 -15
-72 0 -98 3 -93 11 5 8 -3 10 -24 7 -22 -3 -29 -1 -25 9 3 7 -2 13 -12 13 -9
0 -13 -4 -10 -10 8 -13 3 -13 -32 1 -15 6 -44 13 -63 16 -19 2 -36 8 -38 13
-2 6 -10 10 -17 10 -8 0 -18 6 -22 13 -4 6 -18 18 -30 24 -40 23 -16 -11 27
-38 22 -13 40 -27 40 -31 0 -5 7 -8 15 -8 9 0 26 -9 38 -20 15 -15 30 -19 47
-15 18 4 21 3 10 -4 -12 -8 -7 -13 25 -27 22 -9 50 -17 62 -18 11 0 19 -4 17
-8 -3 -4 4 -7 13 -7 10 0 47 -7 83 -15 70 -16 265 -22 274 -7 3 4 33 11 67 15
136 16 201 122 126 206 -12 14 -18 20 -13 13 11 -17 -8 -17 -23 0 -6 8 -8 17
-4 20 3 4 2 7 -4 7 -6 0 -13 -6 -16 -14z m23 -156 c0 -5 -4 -10 -10 -10 -5 0
-10 5 -10 10 0 6 5 10 10 10 6 0 10 -4 10 -10z m-580 -10 c0 -5 -5 -10 -11
-10 -5 0 -7 5 -4 10 3 6 8 10 11 10 2 0 4 -4 4 -10z m423 -51 c7 -1 -6 -7 -28
-14 -53 -18 -129 -17 -190 0 -46 14 -47 15 -10 10 22 -3 57 -8 78 -11 53 -8
135 4 116 18 -11 8 -10 9 4 4 10 -3 24 -6 30 -7z m-296 -5 c-3 -3 -12 -4 -19
-1 -8 3 -5 6 6 6 11 1 17 -2 13 -5z"/>
</g>
</svg>
